<svg id="Warstwa_1" data-name="Warstwa 1" xmlns="http://www.w3.org/2000/svg" viewBox="0 0 277.9 48.84"><defs><style>.cls-1{fill:#feedcc;}</style></defs><path class="cls-1" d="M3.34,4H17.81V8.32H13.3V47.87H8.17V8.32H3.34Z" transform="translate(0.39 0.47)"/><path class="cls-1" d="M22.49,4h5.15V47.87H22.49Z" transform="translate(0.39 0.47)"/><path class="cls-1" d="M53.87,4h6.45V47.87H55.74V30.28l.42-16.38L50.21,47.79H45.55L39.35,13.9l.42,16.38V47.87H35.22V4h6.42l6.28,36Z" transform="translate(0.39 0.47)"/><path class="cls-1" d="M67.49,4h13.1V8.32H72.65v15h7.52V27.6H72.65v16h8v4.29H67.49Z" transform="translate(0.39 0.47)"/><path class="cls-1" d="M96.33,4H110.8V8.32h-4.5V47.87h-5.14V8.32H96.33Z" transform="translate(0.39 0.47)"/><path class="cls-1" d="M114.59,15.94q0-7.47,2.69-10.26a8.16,8.16,0,0,1,6.15-2.19q5.88,0,7.52,4.83a24.3,24.3,0,0,1,1,7.62V35.27c0,4.56-.64,7.89-1.92,10s-3.51,3.13-6.71,3.13-5.44-1-6.75-3.14-2-5.41-2-10Zm12.18-.3a18.34,18.34,0,0,0-.68-6,2.62,2.62,0,0,0-2.71-1.76,2.86,2.86,0,0,0-2.84,1.79,15.81,15.81,0,0,0-.8,5.91v19.7a22.12,22.12,0,0,0,.7,6.81,3.09,3.09,0,0,0,5.63,0,22.07,22.07,0,0,0,.7-6.78Z" transform="translate(0.39 0.47)"/><path class="cls-1" d="M144,3h16.2V7.42h-5V47.86h-5.75V7.42H144Z" transform="translate(0.39 0.47)"/><path class="cls-1" d="M165,3h10.29q4.38,0,6.3,1.65c1.29,1.11,2.06,3,2.32,5.63.11,1.09.17,2.78.17,5.08a15,15,0,0,1-1,5.8,5.07,5.07,0,0,1-3.5,3A3.82,3.82,0,0,1,182.4,26a11.8,11.8,0,0,1,1.33,4.73,88.13,88.13,0,0,1,.39,9.66q0,6.4.45,7.47h-5.74q-.45-.81-.45-15.1,0-4.81-1-5.59a5.17,5.17,0,0,0-3.13-.78l-3.43-.18V47.86H165Zm13.36,11c0-3.44-.34-5.44-1-6a4.64,4.64,0,0,0-2.94-.82h-3.63V22.34h3.68a4.13,4.13,0,0,0,2.46-.58A3.6,3.6,0,0,0,178,19.52a28.25,28.25,0,0,0,.34-5.2Z" transform="translate(0.39 0.47)"/><path class="cls-1" d="M196.87,3h6.94l8.12,44.82h-5.44L205.1,39.3h-8.9l-1.28,8.56h-5.5Zm0,32h7.53l-3.88-23.69h-.08Z" transform="translate(0.39 0.47)"/><path class="cls-1" d="M230,3h5.44L228,47.86h-6.72L213.14,3h5.5l3.26,19,2.79,16.68h.11L227.23,22Z" transform="translate(0.39 0.47)"/><path class="cls-1" d="M241.17,3h14.67V7.42h-8.9V22.75h8.42v4.38h-8.42V43.48h9v4.38H241.17Z" transform="translate(0.39 0.47)"/><path class="cls-1" d="M262.67,3h5.77V43.51h9.07v4.35H262.67Z" transform="translate(0.39 0.47)"/><path d="M-.39.36H14.08V4.64H9.57V44.19H4.44V4.64H-.39Z" transform="translate(0.39 0.47)"/><path d="M18.76.36h5.16V44.19H18.76Z" transform="translate(0.39 0.47)"/><path d="M50.14.36H56.6V44.19H52V26.61l.43-16.39-6,33.9H41.83l-6.2-33.9.42,16.39V44.19H31.49V.36h6.43l6.27,36Z" transform="translate(0.39 0.47)"/><path d="M63.77.36h13.1V4.64h-8v15h7.53v4.28H68.92v16h8v4.28H63.77Z" transform="translate(0.39 0.47)"/><path d="M92.61.36h14.47V4.64h-4.51V44.19H97.44V4.64H92.61Z" transform="translate(0.39 0.47)"/><path d="M110.86,12.26q0-7.47,2.69-10.26a8.19,8.19,0,0,1,6.16-2.19q5.87,0,7.52,4.83a24.6,24.6,0,0,1,1,7.62V31.59c0,4.57-.64,7.89-1.92,10s-3.52,3.12-6.71,3.12-5.45-1-6.75-3.14-2-5.41-2-10ZM123,12a18.48,18.48,0,0,0-.67-6,2.62,2.62,0,0,0-2.71-1.75A2.84,2.84,0,0,0,116.82,6a15.51,15.51,0,0,0-.8,5.9v19.7q0,5,.7,6.81a3.09,3.09,0,0,0,5.63,0,22.19,22.19,0,0,0,.69-6.79Z" transform="translate(0.39 0.47)"/><path d="M140.13-.47h16.2V3.91h-5.05V44.35h-5.74V3.91h-5.41Z" transform="translate(0.39 0.47)"/><path d="M161.13-.47h10.29q4.38,0,6.3,1.66c1.28,1.1,2.06,3,2.32,5.62.11,1.09.16,2.79.16,5.09a14.89,14.89,0,0,1-1,5.79,5,5,0,0,1-3.5,3,3.84,3.84,0,0,1,2.79,1.77,11.78,11.78,0,0,1,1.34,4.74,87.8,87.8,0,0,1,.39,9.65q0,6.4.45,7.47h-5.75q-.44-.81-.44-15.1,0-4.82-1-5.59a5.12,5.12,0,0,0-3.12-.78l-3.43-.17V44.35h-5.77Zm13.36,11c0-3.45-.34-5.44-1-6a4.64,4.64,0,0,0-2.94-.81H166.9V18.83h3.68a4.13,4.13,0,0,0,2.46-.58A3.6,3.6,0,0,0,174.15,16a29.18,29.18,0,0,0,.34-5.2Z" transform="translate(0.39 0.47)"/><path d="M193-.47h6.94L208,44.35H202.6l-1.4-8.55h-8.89L191,44.35h-5.49Zm0,32h7.53L196.6,7.83h-.08Z" transform="translate(0.39 0.47)"/><path d="M226.15-.47h5.44l-7.45,44.82h-6.72L209.25-.47h5.49l3.27,19,2.79,16.69h.11l2.42-16.69Z" transform="translate(0.39 0.47)"/><path d="M237.28-.47H252V3.91h-8.9V19.24h8.42v4.38h-8.42V40h9v4.38H237.28Z" transform="translate(0.39 0.47)"/><path d="M258.78-.47h5.77V40h9.07v4.35H258.78Z" transform="translate(0.39 0.47)"/></svg>